<svg xmlns="http://www.w3.org/2000/svg" width="320" height="72" viewBox="0 0 320 72" fill="none" aria-label="Sohuji">
  <g transform="translate(2 2) scale(1.28)">
    <circle cx="32" cy="32" r="26" stroke="#10b981" stroke-width="3" />
    <path d="M32 12L32 18" stroke="#10b981" stroke-width="3" stroke-linecap="round" />
    <circle cx="32" cy="18" r="4" fill="none" stroke="#10b981" stroke-width="3" />
    <circle cx="20" cy="28" r="4" fill="none" stroke="#10b981" stroke-width="3" />
    <circle cx="44" cy="28" r="4" fill="none" stroke="#10b981" stroke-width="3" />
    <circle cx="32" cy="42" r="5" fill="none" stroke="#10b981" stroke-width="3" />
    <circle cx="24" cy="50" r="3.5" fill="none" stroke="#10b981" stroke-width="3" />
    <circle cx="40" cy="50" r="3.5" fill="none" stroke="#10b981" stroke-width="3" />
    <path d="M32 18L20 28" stroke="#10b981" stroke-width="3" stroke-linecap="round" />
    <path d="M32 18L44 28" stroke="#10b981" stroke-width="3" stroke-linecap="round" />
    <path d="M20 28L32 42" stroke="#10b981" stroke-width="3" stroke-linecap="round" />
    <path d="M44 28L32 42" stroke="#10b981" stroke-width="3" stroke-linecap="round" />
    <path d="M32 42L24 50" stroke="#10b981" stroke-width="3" stroke-linecap="round" />
    <path d="M32 42L40 50" stroke="#10b981" stroke-width="3" stroke-linecap="round" />
    <path d="M24 50L40 50" stroke="#10b981" stroke-width="3" stroke-linecap="round" />
  </g>
  <text x="88" y="42" fill="white" font-family="Arial, Helvetica, sans-serif" font-size="24" font-weight="700">Sohuji</text>
</svg>
